<svg id="visual" viewBox="0 0 900 600" width="900" height="600" xmlns="http://www.w3.org/2000/svg" xmlns:xlink="http://www.w3.org/1999/xlink" version="1.1"><rect x="0" y="0" width="900" height="600" fill="#001220"></rect><path d="M618 600L628.7 592.8C639.3 585.7 660.7 571.3 662.5 557C664.3 542.7 646.7 528.3 629.5 514C612.3 499.7 595.7 485.3 603.8 471.2C612 457 645 443 656.3 428.8C667.7 414.7 657.3 400.3 642.8 386C628.3 371.7 609.7 357.3 610.8 343C612 328.7 633 314.3 641.2 300C649.3 285.7 644.7 271.3 632.2 257C619.7 242.7 599.3 228.3 599.8 214C600.3 199.7 621.7 185.3 622.7 171.2C623.7 157 604.3 143 600 128.8C595.7 114.7 606.3 100.3 614 86C621.7 71.7 626.3 57.3 626.3 43C626.3 28.7 621.7 14.3 619.3 7.2L617 0L900 0L900 7.2C900 14.3 900 28.7 900 43C900 57.3 900 71.7 900 86C900 100.3 900 114.7 900 128.8C900 143 900 157 900 171.2C900 185.3 900 199.7 900 214C900 228.3 900 242.7 900 257C900 271.3 900 285.7 900 300C900 314.3 900 328.7 900 343C900 357.3 900 371.7 900 386C900 400.3 900 414.7 900 428.8C900 443 900 457 900 471.2C900 485.3 900 499.7 900 514C900 528.3 900 542.7 900 557C900 571.3 900 585.7 900 592.8L900 600Z" fill="#fa7268"></path><path d="M699 600L691.7 592.8C684.3 585.7 669.7 571.3 669.2 557C668.7 542.7 682.3 528.3 678.2 514C674 499.7 652 485.3 647.3 471.2C642.7 457 655.3 443 667.3 428.8C679.3 414.7 690.7 400.3 690.5 386C690.3 371.7 678.7 357.3 679.5 343C680.3 328.7 693.7 314.3 688.8 300C684 285.7 661 271.3 655.2 257C649.3 242.7 660.7 228.3 667.5 214C674.3 199.7 676.7 185.3 681.3 171.2C686 157 693 143 686.8 128.8C680.7 114.7 661.3 100.3 658.7 86C656 71.7 670 57.3 682 43C694 28.7 704 14.3 709 7.2L714 0L900 0L900 7.2C900 14.3 900 28.7 900 43C900 57.3 900 71.7 900 86C900 100.3 900 114.7 900 128.8C900 143 900 157 900 171.2C900 185.3 900 199.7 900 214C900 228.3 900 242.7 900 257C900 271.3 900 285.7 900 300C900 314.3 900 328.7 900 343C900 357.3 900 371.7 900 386C900 400.3 900 414.7 900 428.8C900 443 900 457 900 471.2C900 485.3 900 499.7 900 514C900 528.3 900 542.7 900 557C900 571.3 900 585.7 900 592.8L900 600Z" fill="#f16367"></path><path d="M731 600L731.8 592.8C732.7 585.7 734.3 571.3 725.2 557C716 542.7 696 528.3 697.3 514C698.7 499.7 721.3 485.3 728.2 471.2C735 457 726 443 726.3 428.8C726.7 414.7 736.3 400.3 735.5 386C734.7 371.7 723.3 357.3 720.2 343C717 328.7 722 314.3 722 300C722 285.7 717 271.3 718.3 257C719.7 242.7 727.3 228.3 735 214C742.7 199.7 750.3 185.3 751 171.2C751.7 157 745.3 143 733 128.8C720.7 114.7 702.3 100.3 702.3 86C702.3 71.7 720.7 57.3 726.3 43C732 28.7 725 14.3 721.5 7.2L718 0L900 0L900 7.2C900 14.3 900 28.7 900 43C900 57.3 900 71.7 900 86C900 100.3 900 114.7 900 128.8C900 143 900 157 900 171.2C900 185.3 900 199.7 900 214C900 228.3 900 242.7 900 257C900 271.3 900 285.7 900 300C900 314.3 900 328.7 900 343C900 357.3 900 371.7 900 386C900 400.3 900 414.7 900 428.8C900 443 900 457 900 471.2C900 485.3 900 499.7 900 514C900 528.3 900 542.7 900 557C900 571.3 900 585.7 900 592.8L900 600Z" fill="#e85467"></path><path d="M728 600L729.2 592.8C730.3 585.7 732.7 571.3 736.2 557C739.7 542.7 744.3 528.3 744.5 514C744.7 499.7 740.3 485.3 741.3 471.2C742.3 457 748.7 443 747.2 428.8C745.7 414.7 736.3 400.3 739.7 386C743 371.7 759 357.3 764 343C769 328.7 763 314.3 757 300C751 285.7 745 271.3 744 257C743 242.7 747 228.3 752 214C757 199.7 763 185.3 765.2 171.2C767.3 157 765.7 143 761 128.8C756.3 114.7 748.7 100.3 752.5 86C756.3 71.7 771.7 57.3 773 43C774.3 28.7 761.7 14.3 755.3 7.2L749 0L900 0L900 7.2C900 14.3 900 28.7 900 43C900 57.3 900 71.7 900 86C900 100.3 900 114.7 900 128.8C900 143 900 157 900 171.2C900 185.3 900 199.7 900 214C900 228.3 900 242.7 900 257C900 271.3 900 285.7 900 300C900 314.3 900 328.7 900 343C900 357.3 900 371.7 900 386C900 400.3 900 414.7 900 428.8C900 443 900 457 900 471.2C900 485.3 900 499.7 900 514C900 528.3 900 542.7 900 557C900 571.3 900 585.7 900 592.8L900 600Z" fill="#de4467"></path><path d="M823 600L821.7 592.8C820.3 585.7 817.7 571.3 816.7 557C815.7 542.7 816.3 528.3 814.2 514C812 499.7 807 485.3 809.2 471.2C811.3 457 820.7 443 827.2 428.8C833.7 414.7 837.3 400.3 836.7 386C836 371.7 831 357.3 819.3 343C807.7 328.7 789.3 314.3 783.2 300C777 285.7 783 271.3 783.2 257C783.3 242.7 777.7 228.3 782.8 214C788 199.7 804 185.3 810.2 171.2C816.3 157 812.7 143 812.5 128.8C812.3 114.7 815.7 100.3 818.7 86C821.7 71.7 824.3 57.3 822.8 43C821.3 28.7 815.7 14.3 812.8 7.2L810 0L900 0L900 7.2C900 14.3 900 28.7 900 43C900 57.3 900 71.7 900 86C900 100.3 900 114.7 900 128.8C900 143 900 157 900 171.2C900 185.3 900 199.7 900 214C900 228.3 900 242.7 900 257C900 271.3 900 285.7 900 300C900 314.3 900 328.7 900 343C900 357.3 900 371.7 900 386C900 400.3 900 414.7 900 428.8C900 443 900 457 900 471.2C900 485.3 900 499.7 900 514C900 528.3 900 542.7 900 557C900 571.3 900 585.7 900 592.8L900 600Z" fill="#d23467"></path><path d="M831 600L833.3 592.8C835.7 585.7 840.3 571.3 840.5 557C840.7 542.7 836.3 528.3 833.8 514C831.3 499.7 830.7 485.3 835.5 471.2C840.3 457 850.7 443 857.5 428.8C864.3 414.7 867.7 400.3 863 386C858.3 371.7 845.7 357.3 841 343C836.3 328.7 839.7 314.3 845.7 300C851.7 285.7 860.3 271.3 859.2 257C858 242.7 847 228.3 840.3 214C833.7 199.7 831.3 185.3 838.2 171.2C845 157 861 143 862.8 128.8C864.7 114.7 852.3 100.3 845.7 86C839 71.7 838 57.3 842.8 43C847.7 28.7 858.3 14.3 863.7 7.2L869 0L900 0L900 7.2C900 14.3 900 28.7 900 43C900 57.3 900 71.7 900 86C900 100.3 900 114.7 900 128.8C900 143 900 157 900 171.2C900 185.3 900 199.7 900 214C900 228.3 900 242.7 900 257C900 271.3 900 285.7 900 300C900 314.3 900 328.7 900 343C900 357.3 900 371.7 900 386C900 400.3 900 414.7 900 428.8C900 443 900 457 900 471.2C900 485.3 900 499.7 900 514C900 528.3 900 542.7 900 557C900 571.3 900 585.7 900 592.8L900 600Z" fill="#c62368"></path></svg>