<?xml version="1.0" standalone="no"?>
<!DOCTYPE svg PUBLIC "-//W3C//DTD SVG 20010904//EN"
 "http://www.w3.org/TR/2001/REC-SVG-20010904/DTD/svg10.dtd">
<svg version="1.0" xmlns="http://www.w3.org/2000/svg"
 width="223.000000pt" height="232.000000pt" viewBox="0 0 223.000000 232.000000"
 preserveAspectRatio="xMidYMid meet">

<g transform="translate(0.000000,232.000000) scale(0.100000,-0.100000)"
fill="#000000" stroke="none">
<path d="M926 2124 c-402 -89 -700 -392 -782 -794 -25 -124 -16 -345 19 -461
36 -120 68 -188 133 -287 72 -107 169 -204 276 -276 98 -64 166 -96 287 -133
80 -25 99 -27 271 -27 172 0 191 2 271 27 177 54 319 138 439 257 119 120 203
262 257 439 25 80 27 99 27 271 0 172 -2 191 -27 271 -37 121 -69 189 -133
287 -99 148 -263 289 -418 357 -136 60 -220 77 -391 81 -118 3 -178 -1 -229
-12z m262 -529 c25 -23 31 -88 22 -249 -5 -88 -8 -161 -6 -163 2 -2 48 6 102
18 81 17 104 26 126 50 24 26 30 27 57 18 62 -22 84 -110 36 -147 -25 -20
-142 -46 -262 -58 l-63 -7 0 -116 c0 -64 7 -156 16 -206 15 -89 15 -90 -6
-107 -29 -23 -82 -23 -103 0 -26 28 -37 111 -37 270 l0 145 -42 -7 c-24 -3
-104 -9 -178 -12 -130 -6 -136 -5 -158 16 -30 28 -26 70 8 87 14 7 54 13 90
13 36 0 113 5 171 11 l106 12 6 201 c3 111 8 209 12 219 15 36 72 42 103 12z"/>
</g>
</svg>
